<?xml version="1.0" standalone="no"?>
<!DOCTYPE svg PUBLIC "-//W3C//DTD SVG 20010904//EN"
 "http://www.w3.org/TR/2001/REC-SVG-20010904/DTD/svg10.dtd">
<svg version="1.0" xmlns="http://www.w3.org/2000/svg"
 width="872.000000pt" height="548.000000pt" viewBox="0 0 872.000000 548.000000"
 preserveAspectRatio="xMidYMid meet">

<g transform="translate(0.000000,548.000000) scale(0.100000,-0.100000)"
fill="#FFFFFF" stroke="none">
<path d="M890 2830 l0 -1970 1090 0 1090 0 0 90 0 90 -1000 0 -1000 0 0 1795
0 1795 3365 0 3365 0 0 -1580 0 -1580 90 0 90 0 0 1665 0 1665 -3545 0 -3545
0 0 -1970z"/>
<path d="M4820 3630 c-292 -26 -460 -209 -460 -502 l0 -68 -95 0 -95 0 0 -155
0 -155 95 0 95 0 0 -520 0 -520 225 0 225 0 0 520 0 520 134 0 c120 0 135 2
139 18 4 16 5 16 6 0 1 -16 12 -18 86 -18 l85 0 0 -298 c0 -164 5 -335 10
-380 27 -210 121 -336 290 -386 80 -24 262 -23 362 3 76 20 171 62 183 81 5 9
-113 250 -134 272 -3 4 -24 1 -46 -7 -47 -17 -113 -19 -149 -5 -14 5 -33 24
-43 42 -16 29 -18 68 -21 356 l-3 322 133 0 134 0 18 128 c9 70 20 139 23 155
l5 27 -156 0 -156 0 0 170 0 171 -32 -6 c-18 -2 -116 -14 -218 -26 -102 -11
-188 -23 -192 -26 -5 -2 -8 -67 -8 -144 l0 -139 -226 0 -227 0 5 78 c8 140 47
177 178 169 41 -3 98 -14 126 -25 l51 -21 60 144 60 144 -50 21 c-78 34 -136
49 -207 55 -36 3 -81 7 -100 9 -19 1 -69 0 -110 -4z"/>
<path d="M2141 3085 c-75 -21 -141 -59 -210 -122 l-59 -53 -17 75 -16 75 -195
0 -194 0 0 -675 0 -675 225 0 225 0 0 459 0 459 40 51 c72 91 175 121 228 67
l27 -26 3 -505 3 -505 224 0 225 0 0 538 c0 581 -1 591 -55 690 -31 57 -84
103 -153 135 -61 28 -221 34 -301 12z"/>
<path d="M3205 3081 c-116 -21 -275 -70 -275 -86 0 -5 21 -72 46 -148 38 -115
49 -137 63 -132 55 23 219 57 296 62 127 8 197 -12 224 -65 10 -20 21 -64 25
-98 l7 -61 -143 -7 c-219 -10 -342 -42 -448 -115 -112 -77 -170 -193 -170
-340 0 -130 35 -223 113 -304 168 -173 520 -163 686 19 l48 53 32 -45 c51 -73
141 -120 268 -139 l42 -7 45 143 45 143 -35 30 c-47 42 -52 80 -53 444 0 160
-5 311 -10 334 -35 156 -126 252 -287 305 -70 23 -98 26 -249 29 -132 3 -192
-1 -270 -15z m383 -884 l3 -109 -43 -43 c-124 -123 -289 -63 -276 101 10 113
98 166 268 160 l45 -1 3 -108z"/>
<path d="M6540 3085 c-47 -8 -125 -26 -175 -41 -49 -14 -98 -29 -107 -31 -10
-3 -18 -10 -18 -17 0 -6 21 -73 47 -149 38 -110 50 -136 63 -131 61 24 220 56
305 60 177 8 227 -26 241 -164 l7 -62 -69 0 c-339 0 -561 -89 -649 -260 -60
-117 -59 -296 4 -418 27 -53 106 -129 164 -158 83 -43 176 -57 289 -45 145 16
216 49 299 138 l47 49 40 -52 c29 -38 57 -60 104 -83 62 -30 187 -57 199 -43
3 4 25 68 48 142 l42 135 -29 25 c-17 14 -35 35 -41 47 -7 14 -11 119 -11 305
0 156 -5 321 -10 366 -26 203 -110 308 -295 369 -71 23 -99 26 -245 29 -108 2
-194 -2 -250 -11z m358 -888 l3 -109 -43 -43 c-90 -89 -224 -84 -264 10 -32
76 -1 181 64 219 36 20 120 35 192 32 l45 -1 3 -108z"/>
<path d="M7502 1341 c-21 -13 -11 -55 15 -59 30 -4 49 31 27 52 -18 18 -24 19
-42 7z"/>
<path d="M5120 1265 c0 -60 -2 -66 -17 -60 -94 41 -163 -13 -163 -128 0 -63
19 -110 49 -127 29 -15 83 -12 109 6 20 14 22 14 22 0 0 -10 9 -16 25 -16 l25
0 -2 193 c-3 191 -3 192 -25 195 -22 3 -23 0 -23 -63z m-22 -101 c19 -13 22
-24 22 -80 0 -74 -20 -104 -69 -104 -37 0 -52 19 -58 74 -12 102 39 156 105
110z"/>
<path d="M5400 1135 c0 -186 1 -195 19 -195 11 0 23 5 26 10 4 7 12 7 25 0 34
-18 89 -12 115 14 23 23 45 82 45 120 0 39 -24 98 -48 117 -30 23 -79 25 -110
3 l-22 -15 0 70 c0 69 -1 71 -25 71 l-25 0 0 -195z m154 23 c10 -14 16 -44 16
-78 0 -65 -19 -100 -56 -100 -54 0 -64 14 -64 95 0 65 3 76 22 89 32 22 64 20
82 -6z"/>
<path d="M6540 1250 c0 -25 -4 -30 -25 -30 -33 0 -35 -37 -2 -42 21 -3 22 -8
25 -103 3 -115 14 -135 71 -135 44 0 64 12 56 32 -4 10 -18 15 -38 14 l-32 -1
-3 98 -3 97 31 0 c23 0 30 4 30 20 0 16 -7 20 -30 20 -27 0 -30 3 -30 30 0 25
-4 30 -25 30 -21 0 -25 -5 -25 -30z"/>
<path d="M7649 1273 c-1 -5 0 -18 1 -30 1 -18 -4 -23 -24 -23 -34 0 -37 -37
-3 -42 21 -3 22 -8 25 -103 3 -115 14 -135 71 -135 47 0 71 14 53 32 -6 6 -24
12 -40 13 l-27 0 -3 98 -3 97 31 0 c23 0 30 4 30 20 0 16 -7 20 -30 20 -27 0
-30 3 -30 30 0 25 -4 30 -25 30 -14 0 -25 -3 -26 -7z"/>
<path d="M3230 1025 c0 -112 4 -195 9 -195 33 0 41 14 41 73 0 47 3 58 12 49
15 -15 82 -16 109 -2 36 20 51 67 47 146 -3 60 -8 77 -27 98 -29 31 -88 35
-126 10 -23 -15 -25 -15 -25 0 0 9 -8 16 -20 16 -19 0 -20 -7 -20 -195z m150
140 c15 -18 25 -95 16 -129 -9 -35 -33 -56 -65 -56 -42 0 -51 17 -51 94 0 51
4 74 17 88 20 22 66 24 83 3z"/>
<path d="M3555 1187 c-63 -63 -54 -196 15 -232 37 -19 93 -19 129 -1 52 27 74
119 46 191 -20 53 -54 75 -116 75 -33 0 -47 -6 -74 -33z m125 -27 c15 -15 20
-33 20 -78 0 -73 -18 -102 -65 -102 -47 0 -65 29 -65 102 0 66 22 98 65 98 14
0 34 -9 45 -20z"/>
<path d="M3800 1210 c0 -11 46 -220 56 -252 4 -12 16 -18 38 -18 l32 0 19 93
c10 50 21 98 25 105 4 8 14 -25 24 -75 25 -127 23 -123 60 -123 l33 0 28 128
c15 70 30 133 32 140 3 7 -4 12 -20 12 -23 0 -27 -6 -37 -57 -18 -86 -38 -169
-40 -163 -1 3 -12 52 -24 110 -22 105 -22 105 -51 105 -29 0 -30 -1 -51 -95
-29 -134 -29 -134 -49 -45 -30 141 -30 140 -53 143 -12 2 -22 -2 -22 -8z"/>
<path d="M4242 1204 c-35 -24 -52 -68 -52 -135 0 -56 3 -64 34 -95 29 -29 41
-34 80 -34 43 0 96 16 96 29 -1 22 -19 32 -38 22 -37 -20 -79 -13 -101 15 -37
48 -30 54 64 54 l85 0 0 41 c0 74 -39 118 -105 119 -22 0 -51 -7 -63 -16z
m100 -41 c10 -9 18 -27 18 -40 0 -22 -4 -23 -60 -23 -51 0 -60 3 -60 18 0 52
63 81 102 45z"/>
<path d="M4490 1080 l0 -140 25 0 c25 0 25 0 25 93 0 107 13 137 61 137 24 0
29 4 29 25 0 20 -5 25 -27 25 -15 0 -37 -10 -50 -22 l-23 -21 0 21 c0 15 -6
22 -20 22 -19 0 -20 -7 -20 -140z"/>
<path d="M4697 1196 c-58 -53 -61 -174 -6 -229 28 -27 34 -29 89 -25 65 5 97
22 79 44 -8 10 -16 11 -30 3 -11 -5 -37 -9 -57 -7 -31 2 -40 9 -54 38 l-18 35
90 3 90 3 0 30 c0 41 -24 93 -51 113 -36 25 -101 21 -132 -8z m111 -29 c6 -6
13 -24 17 -40 l7 -27 -61 0 c-56 0 -61 2 -61 22 0 46 70 79 98 45z"/>
<path d="M5665 1198 c4 -13 27 -79 50 -148 47 -136 46 -151 -5 -168 -29 -11
-40 -35 -20 -47 16 -10 76 22 97 51 19 28 113 295 113 322 0 8 -9 12 -22 10
-19 -3 -28 -20 -58 -117 l-36 -115 -35 115 c-34 107 -38 114 -63 117 -25 3
-27 1 -21 -20z"/>
<path d="M6112 1213 c-15 -3 -22 -10 -20 -21 3 -14 13 -16 56 -14 59 4 82 -8
82 -43 0 -20 -6 -23 -55 -27 -70 -6 -105 -35 -105 -88 0 -52 32 -80 92 -80 29
0 54 7 69 19 24 19 25 19 48 0 47 -38 194 -14 160 27 -8 10 -16 11 -29 4 -49
-26 -120 3 -120 50 0 18 7 20 85 20 l85 0 0 30 c0 42 -23 94 -51 114 -30 20
-88 21 -117 0 -20 -14 -24 -14 -44 0 -21 15 -83 19 -136 9z m282 -55 c32 -45
22 -58 -44 -58 -55 0 -60 2 -60 22 0 53 74 79 104 36z m-161 -105 c7 -37 0
-51 -34 -69 -32 -16 -62 -7 -73 22 -9 23 18 62 46 67 49 9 56 7 61 -20z"/>
<path d="M6741 1194 c-60 -50 -66 -171 -11 -226 24 -24 37 -28 82 -28 63 0
106 23 87 46 -8 10 -16 11 -29 4 -49 -26 -120 3 -120 50 0 18 7 20 85 20 l85
0 0 30 c0 42 -23 94 -51 114 -36 25 -92 21 -128 -10z m113 -36 c32 -45 22 -58
-44 -58 -51 0 -60 3 -60 18 0 32 29 62 60 62 18 0 34 -8 44 -22z"/>
<path d="M6994 1207 c-2 -7 -3 -69 -2 -138 3 -120 4 -124 26 -127 21 -3 22 -1
22 75 0 97 20 146 65 153 22 4 31 11 33 28 3 18 -1 22 -24 22 -15 0 -38 -10
-51 -22 l-23 -21 0 21 c0 25 -37 32 -46 9z"/>
<path d="M7197 1213 c-4 -3 -7 -66 -7 -140 l0 -133 25 0 c25 0 25 0 25 98 0
90 2 100 23 120 27 26 72 29 81 6 3 -9 6 -63 6 -120 l0 -104 25 0 25 0 0 120
c0 107 -2 122 -20 140 -24 24 -81 27 -114 5 -21 -14 -24 -14 -29 0 -7 15 -28
20 -40 8z"/>
<path d="M7500 1081 l0 -141 25 0 26 0 -3 138 c-3 134 -4 137 -25 140 -23 3
-23 3 -23 -137z"/>
<path d="M7788 1214 c-8 -7 83 -268 94 -272 15 -6 -31 -60 -57 -66 -27 -7 -30
-13 -16 -34 7 -11 14 -11 42 1 19 8 42 24 52 35 11 11 43 91 72 177 44 126 51
157 39 162 -29 11 -41 -7 -69 -103 -15 -55 -31 -105 -35 -112 -4 -8 -19 29
-35 85 -16 54 -32 106 -37 116 -8 16 -38 23 -50 11z"/>
</g>
</svg>
